<svg width="20" height="21" viewBox="0 0 20 21" fill="none" xmlns="http://www.w3.org/2000/svg">
<path d="M10 0.570526C4.4775 0.570526 0 5.04803 0 10.5705C0 16.093 4.4775 20.5705 10 20.5705C15.5225 20.5705 20 16.093 20 10.5705C20 5.04803 15.5225 0.570526 10 0.570526ZM6.24667 5.07303C6.94833 5.07303 7.41583 5.54053 7.41583 6.16386C7.41583 6.78719 6.94833 7.25469 6.16917 7.25469C5.4675 7.25553 5 6.78719 5 6.16386C5 5.54053 5.4675 5.07303 6.24667 5.07303ZM7.5 14.7372H5V8.07053H7.5V14.7372ZM15.8333 14.7372H13.48V11.0939C13.48 10.0864 12.8525 9.85386 12.6175 9.85386C12.3825 9.85386 11.5975 10.0089 11.5975 11.0939C11.5975 11.2489 11.5975 14.7372 11.5975 14.7372H9.16667V8.07053H11.5983V9.00053C11.9117 8.45803 12.5392 8.07053 13.7158 8.07053C14.8925 8.07053 15.8333 9.00053 15.8333 11.0939V14.7372Z" fill="white"/>
</svg>
